<svg version="1.1" id="Layer_1" xmlns="http://www.w3.org/2000/svg" xmlns:xlink="http://www.w3.org/1999/xlink" x="0px" y="0px"
	 width="100%" viewBox="0 0 1029 273" enable-background="new 0 0 1029 273" xml:space="preserve">
<path fill="#000000" opacity="1.000000" stroke="none" 
	d="
M1030.000000,195.000000 
	C1030.000000,221.319763 1030.000000,247.639526 1030.000000,274.000000 
	C778.309998,274.000000 526.619995,274.000000 274.465027,273.531342 
	C274.000000,212.821259 274.000000,152.579834 274.000000,92.434639 
	C258.184143,90.604774 235.171906,95.883652 215.449371,112.438156 
	C194.197708,130.276154 182.883362,153.464569 182.718811,181.999847 
	C180.545563,181.999847 178.745651,181.999863 176.945740,181.999863 
	C156.282913,181.999893 135.616943,181.782822 114.958397,182.080612 
	C102.387108,182.261826 92.886078,170.893417 92.959785,160.092133 
	C93.099640,139.596878 92.994377,119.100006 93.010742,98.603821 
	C93.012154,96.842957 93.161247,95.082207 93.256424,93.000214 
	C95.445747,93.000214 97.091789,93.015411 98.737480,92.997955 
	C129.843353,92.668030 160.959274,92.706696 192.051239,91.862785 
	C210.961838,91.349503 227.705292,83.650162 241.804428,71.452271 
	C263.085938,53.040535 274.615784,29.668438 274.000000,1.000000 
	C526.000000,1.000000 778.000000,1.000000 1030.000000,1.000000 
	C1030.000000,26.763121 1030.000000,52.416550 1029.643799,78.583344 
	C1028.242920,77.868736 1026.949463,76.776817 1026.191528,75.391861 
	C1018.025513,60.469147 1005.364990,51.068592 989.352417,46.353420 
	C973.802490,41.774456 958.003723,42.027431 942.227661,45.786983 
	C931.147583,48.427456 921.549866,53.344257 914.104065,62.257805 
	C906.509766,71.349174 903.539185,81.985184 903.038635,93.478683 
	C902.602905,103.483269 904.610657,112.872009 910.644592,121.194931 
	C919.968994,134.056671 933.565796,139.860870 948.119812,143.971451 
	C963.529053,148.323532 979.399963,151.025909 993.430847,159.643158 
	C1009.747803,169.664459 1010.656677,192.218277 994.744446,202.793274 
	C984.501770,209.600403 973.078491,211.370712 961.031677,211.044235 
	C942.037109,210.529449 927.671936,202.701263 918.888123,185.450912 
	C918.436584,184.564026 916.821777,183.425034 916.126099,183.637802 
	C909.411377,185.691483 902.777588,188.009888 895.942688,190.312576 
	C900.929077,205.757156 910.768738,216.103027 924.018250,222.843948 
	C940.367554,231.161896 957.950439,233.019196 976.205261,231.124573 
	C999.021301,228.756577 1017.267944,220.155273 1026.704346,197.769028 
	C1027.200562,196.592087 1028.874390,195.911606 1030.000000,195.000000 
M804.116089,45.175709 
	C790.477539,42.609882 776.813354,42.155140 763.176086,45.041405 
	C732.144470,51.609097 711.196045,70.001099 700.025574,99.538803 
	C692.286316,120.003227 691.804993,141.222885 696.250977,162.238281 
	C701.845825,188.683731 716.486694,209.241089 740.847351,221.856918 
	C760.027344,231.789764 780.482117,233.952347 801.664978,230.085846 
	C830.533447,224.816513 851.009094,208.731689 863.383179,182.250641 
	C872.952759,161.771286 874.373596,140.282379 871.079346,118.220116 
	C865.531494,81.064049 840.913269,53.949898 804.116089,45.175709 
M478.286285,226.892487 
	C497.066711,220.293610 511.344727,208.473633 520.677673,190.738693 
	C529.402283,174.159622 529.528992,156.279785 528.795593,138.290070 
	C528.749207,137.152527 526.412476,135.171783 525.127502,135.160583 
	C502.803650,134.965897 480.477570,135.048126 458.152252,134.980850 
	C455.230927,134.972046 453.851288,135.914963 453.981873,139.003250 
	C454.136536,142.661896 454.235718,146.350250 453.946533,149.992996 
	C453.624847,154.045822 455.350586,155.103195 459.151459,155.059937 
	C473.311340,154.898758 487.477814,155.182251 501.633942,154.901642 
	C506.304810,154.809052 507.577972,156.646774 506.948090,160.762207 
	C504.462219,177.003601 497.517120,190.615250 483.665924,200.135651 
	C457.690674,217.989334 419.511719,213.544510 396.654785,191.036896 
	C378.580231,173.238556 373.440125,150.605927 376.357727,126.444489 
	C379.462402,100.734192 392.855469,81.246964 417.071808,70.548843 
	C438.551483,61.059727 460.034698,61.232548 480.289673,73.830338 
	C488.277588,78.798500 495.127106,85.596970 503.267639,92.187538 
	C507.876678,89.017715 513.793945,84.948151 519.665283,80.910202 
	C519.094910,79.584175 518.907837,78.721298 518.423157,78.085289 
	C506.552948,62.509285 490.929382,52.528851 472.296539,46.873322 
	C457.528809,42.390953 442.682281,42.140148 427.611908,44.948910 
	C394.521912,51.116116 371.424438,69.527191 358.951508,100.887131 
	C352.081726,118.159401 351.449402,136.185272 354.037445,154.282578 
	C358.424500,184.959839 374.368286,208.081085 402.139191,221.833664 
	C426.249939,233.773697 451.728333,234.930054 478.286285,226.892487 
M567.000000,158.500000 
	C567.000732,179.998199 567.144409,201.498047 566.894104,222.993332 
	C566.836792,227.910965 568.412170,229.517578 573.156372,229.066757 
	C576.789917,228.721497 580.505249,228.740738 584.143127,229.062500 
	C588.702820,229.465805 590.140991,227.811432 590.093567,223.194839 
	C589.875793,202.032242 589.999207,180.866104 590.000000,159.701248 
	C590.000427,149.000626 590.000366,149.000992 600.453247,148.999939 
	C618.285034,148.998123 636.117798,148.898468 653.947937,149.068970 
	C657.908508,149.106842 659.338135,147.780655 659.045715,143.892105 
	C658.796509,140.577896 658.756714,137.208191 659.056274,133.902176 
	C659.462585,129.415924 657.931885,127.842339 653.240356,127.901909 
	C634.245117,128.143066 615.241760,127.809532 596.248596,128.122513 
	C591.035828,128.208420 589.812561,126.504822 589.897034,121.589531 
	C590.174744,105.429008 590.171143,89.257889 589.897888,73.097221 
	C589.816711,68.296227 591.216064,66.850494 596.060852,66.897255 
	C619.889893,67.127289 643.722412,67.000534 667.553711,67.000053 
	C682.088562,66.999763 681.863525,66.996078 682.120911,52.294773 
	C682.210571,47.172806 680.630310,45.864002 675.636841,45.894112 
	C641.640991,46.099091 607.643311,45.996735 573.646179,46.004742 
	C567.032898,46.006298 567.007202,46.028870 567.005493,52.508957 
	C566.996033,87.505974 567.000427,122.502983 567.000000,158.500000 
z"/>
<path fill="#007D8F" opacity="1.000000" stroke="none" 
	d="
M273.531342,1.000000 
	C274.615784,29.668438 263.085938,53.040535 241.804428,71.452271 
	C227.705292,83.650162 210.961838,91.349503 192.051239,91.862785 
	C160.959274,92.706696 129.843353,92.668030 98.737480,92.997955 
	C97.091789,93.015411 95.445747,93.000214 93.256424,93.000214 
	C93.161247,95.082207 93.012154,96.842957 93.010742,98.603821 
	C92.994377,119.100006 93.099640,139.596878 92.959785,160.092133 
	C92.886078,170.893417 102.387108,182.261826 114.958397,182.080612 
	C135.616943,181.782822 156.282913,181.999893 176.945740,181.999863 
	C178.745651,181.999863 180.545563,181.999847 182.718811,181.999847 
	C182.883362,153.464569 194.197708,130.276154 215.449371,112.438156 
	C235.171906,95.883652 258.184143,90.604774 274.000000,92.434639 
	C274.000000,152.579834 274.000000,212.821259 274.000000,273.531342 
	C194.645767,274.000000 115.291542,274.000000 35.616318,273.636047 
	C34.966526,272.912811 34.698616,272.337830 34.300133,272.225372 
	C18.294584,267.707336 8.173858,257.204437 2.939345,241.633026 
	C2.709295,240.948700 1.665012,240.538101 1.000001,240.000000 
	C1.000000,160.401443 1.000000,80.802879 1.000000,1.000000 
	C91.687462,1.000000 182.375076,1.000000 273.531342,1.000000 
z"/>
<path fill="#494948" opacity="1.000000" stroke="none" 
	d="
M1030.000000,194.531342 
	C1028.874390,195.911606 1027.200562,196.592087 1026.704346,197.769028 
	C1017.267944,220.155273 999.021301,228.756577 976.205261,231.124573 
	C957.950439,233.019196 940.367554,231.161896 924.018250,222.843948 
	C910.768738,216.103027 900.929077,205.757156 895.942688,190.312576 
	C902.777588,188.009888 909.411377,185.691483 916.126099,183.637802 
	C916.821777,183.425034 918.436584,184.564026 918.888123,185.450912 
	C927.671936,202.701263 942.037109,210.529449 961.031677,211.044235 
	C973.078491,211.370712 984.501770,209.600403 994.744446,202.793274 
	C1010.656677,192.218277 1009.747803,169.664459 993.430847,159.643158 
	C979.399963,151.025909 963.529053,148.323532 948.119812,143.971451 
	C933.565796,139.860870 919.968994,134.056671 910.644592,121.194931 
	C904.610657,112.872009 902.602905,103.483269 903.038635,93.478683 
	C903.539185,81.985184 906.509766,71.349174 914.104065,62.257805 
	C921.549866,53.344257 931.147583,48.427456 942.227661,45.786983 
	C958.003723,42.027431 973.802490,41.774456 989.352417,46.353420 
	C1005.364990,51.068592 1018.025513,60.469147 1026.191528,75.391861 
	C1026.949463,76.776817 1028.242920,77.868736 1029.643799,79.048355 
	C1030.000000,80.388893 1030.000000,81.777779 1029.626465,83.621620 
	C1023.316711,86.145973 1017.347046,88.125816 1011.460144,90.326790 
	C1008.942871,91.267944 1008.029053,90.529915 1006.446777,88.313965 
	C1002.550537,82.857452 998.577820,77.097389 993.427979,72.964333 
	C980.366211,62.481396 964.894470,62.145370 949.416199,65.490936 
	C936.112915,68.366386 927.578552,78.775757 926.058777,91.995644 
	C924.648865,104.260735 932.527710,115.332214 946.669739,119.939896 
	C956.090942,123.009483 965.705566,125.560738 975.350037,127.854637 
	C997.681824,133.166199 1016.764160,142.797913 1027.070435,164.870972 
	C1027.517334,165.827957 1028.999878,166.301346 1030.000000,167.000000 
	C1030.000000,176.020889 1030.000000,185.041794 1030.000000,194.531342 
z"/>
<path fill="#000000" opacity="1.000000" stroke="none" 
	d="
M1030.000000,166.531342 
	C1028.999878,166.301346 1027.517334,165.827957 1027.070435,164.870972 
	C1016.764160,142.797913 997.681824,133.166199 975.350037,127.854637 
	C965.705566,125.560738 956.090942,123.009483 946.669739,119.939896 
	C932.527710,115.332214 924.648865,104.260735 926.058777,91.995644 
	C927.578552,78.775757 936.112915,68.366386 949.416199,65.490936 
	C964.894470,62.145370 980.366211,62.481396 993.427979,72.964333 
	C998.577820,77.097389 1002.550537,82.857452 1006.446777,88.313965 
	C1008.029053,90.529915 1008.942871,91.267944 1011.460144,90.326790 
	C1017.347046,88.125816 1023.316711,86.145973 1029.626465,84.038284 
	C1030.000000,111.354225 1030.000000,138.708450 1030.000000,166.531342 
z"/>
<path fill="#000000" opacity="1.000000" stroke="none" 
	d="
M1.000001,240.468658 
	C1.665012,240.538101 2.709295,240.948700 2.939345,241.633026 
	C8.173858,257.204437 18.294584,267.707336 34.300133,272.225372 
	C34.698616,272.337830 34.966526,272.912811 35.147659,273.636047 
	C23.740093,274.000000 12.480186,274.000000 1.000000,274.000000 
	C1.000000,262.980072 1.000000,251.958694 1.000001,240.468658 
z"/>
<path fill="#494948" opacity="1.000000" stroke="none" 
	d="
M804.516357,45.318222 
	C840.913269,53.949898 865.531494,81.064049 871.079346,118.220116 
	C874.373596,140.282379 872.952759,161.771286 863.383179,182.250641 
	C851.009094,208.731689 830.533447,224.816513 801.664978,230.085846 
	C780.482117,233.952347 760.027344,231.789764 740.847351,221.856918 
	C716.486694,209.241089 701.845825,188.683731 696.250977,162.238281 
	C691.804993,141.222885 692.286316,120.003227 700.025574,99.538803 
	C711.196045,70.001099 732.144470,51.609097 763.176086,45.041405 
	C776.813354,42.155140 790.477539,42.609882 804.516357,45.318222 
M722.161072,168.200012 
	C726.634949,175.493896 730.115540,183.692413 735.774963,189.906540 
	C750.821045,206.427307 770.021179,212.823135 792.296814,210.071152 
	C813.857361,207.407516 829.336060,195.996841 839.803467,177.390961 
	C849.604797,159.968872 850.812378,141.111176 847.988220,121.858650 
	C843.474426,91.088799 819.917114,65.963135 787.118835,64.178886 
	C763.255981,62.880730 743.433960,72.017090 730.078430,92.187325 
	C714.544556,115.647568 713.306519,141.125885 722.161072,168.200012 
z"/>
<path fill="#494948" opacity="1.000000" stroke="none" 
	d="
M477.911377,227.022659 
	C451.728333,234.930054 426.249939,233.773697 402.139191,221.833664 
	C374.368286,208.081085 358.424500,184.959839 354.037445,154.282578 
	C351.449402,136.185272 352.081726,118.159401 358.951508,100.887131 
	C371.424438,69.527191 394.521912,51.116116 427.611908,44.948910 
	C442.682281,42.140148 457.528809,42.390953 472.296539,46.873322 
	C490.929382,52.528851 506.552948,62.509285 518.423157,78.085289 
	C518.907837,78.721298 519.094910,79.584175 519.665283,80.910202 
	C513.793945,84.948151 507.876678,89.017715 503.267639,92.187538 
	C495.127106,85.596970 488.277588,78.798500 480.289673,73.830338 
	C460.034698,61.232548 438.551483,61.059727 417.071808,70.548843 
	C392.855469,81.246964 379.462402,100.734192 376.357727,126.444489 
	C373.440125,150.605927 378.580231,173.238556 396.654785,191.036896 
	C419.511719,213.544510 457.690674,217.989334 483.665924,200.135651 
	C497.517120,190.615250 504.462219,177.003601 506.948090,160.762207 
	C507.577972,156.646774 506.304810,154.809052 501.633942,154.901642 
	C487.477814,155.182251 473.311340,154.898758 459.151459,155.059937 
	C455.350586,155.103195 453.624847,154.045822 453.946533,149.992996 
	C454.235718,146.350250 454.136536,142.661896 453.981873,139.003250 
	C453.851288,135.914963 455.230927,134.972046 458.152252,134.980850 
	C480.477570,135.048126 502.803650,134.965897 525.127502,135.160583 
	C526.412476,135.171783 528.749207,137.152527 528.795593,138.290070 
	C529.528992,156.279785 529.402283,174.159622 520.677673,190.738693 
	C511.344727,208.473633 497.066711,220.293610 477.911377,227.022659 
z"/>
<path fill="#494948" opacity="1.000000" stroke="none" 
	d="
M567.000000,158.000000 
	C567.000427,122.502983 566.996033,87.505974 567.005493,52.508957 
	C567.007202,46.028870 567.032898,46.006298 573.646179,46.004742 
	C607.643311,45.996735 641.640991,46.099091 675.636841,45.894112 
	C680.630310,45.864002 682.210571,47.172806 682.120911,52.294773 
	C681.863525,66.996078 682.088562,66.999763 667.553711,67.000053 
	C643.722412,67.000534 619.889893,67.127289 596.060852,66.897255 
	C591.216064,66.850494 589.816711,68.296227 589.897888,73.097221 
	C590.171143,89.257889 590.174744,105.429008 589.897034,121.589531 
	C589.812561,126.504822 591.035828,128.208420 596.248596,128.122513 
	C615.241760,127.809532 634.245117,128.143066 653.240356,127.901909 
	C657.931885,127.842339 659.462585,129.415924 659.056274,133.902176 
	C658.756714,137.208191 658.796509,140.577896 659.045715,143.892105 
	C659.338135,147.780655 657.908508,149.106842 653.947937,149.068970 
	C636.117798,148.898468 618.285034,148.998123 600.453247,148.999939 
	C590.000366,149.000992 590.000427,149.000626 590.000000,159.701248 
	C589.999207,180.866104 589.875793,202.032242 590.093567,223.194839 
	C590.140991,227.811432 588.702820,229.465805 584.143127,229.062500 
	C580.505249,228.740738 576.789917,228.721497 573.156372,229.066757 
	C568.412170,229.517578 566.836792,227.910965 566.894104,222.993332 
	C567.144409,201.498047 567.000732,179.998199 567.000000,158.000000 
z"/>
<path fill="#000000" opacity="1.000000" stroke="none" 
	d="
M722.076904,167.816971 
	C713.306519,141.125885 714.544556,115.647568 730.078430,92.187325 
	C743.433960,72.017090 763.255981,62.880730 787.118835,64.178886 
	C819.917114,65.963135 843.474426,91.088799 847.988220,121.858650 
	C850.812378,141.111176 849.604797,159.968872 839.803467,177.390961 
	C829.336060,195.996841 813.857361,207.407516 792.296814,210.071152 
	C770.021179,212.823135 750.821045,206.427307 735.774963,189.906540 
	C730.115540,183.692413 726.634949,175.493896 722.076904,167.816971 
z"/>
</svg>